# xmcd
#
# Track frame offsets:
#	150
#	12809
#	23569
#	38771
#	53494
#	66297
#	83201
#	101217
#	115045
#	127549
#	144454
#
# Disc length: 2149 seconds
#
# Revision: 1
# Processed by: cddbd v1.5.2PL0 Copyright (c) Steve Scherf et al.
# Submitted via: audiograbber 1.83.01
#
DISCID=7e08630b
DTITLE=The Misty Mountain Boys - Carolina Morning Blues
DYEAR=2000
DGENRE=Bluegrass
TTITLE0=Sacred Realm
TTITLE1=If Wishes Were Horses
TTITLE2=Speed Of The Sound Of Loneliness
TTITLE3=Carolina Morning Blues
TTITLE4=Foggy Mountain Rock
TTITLE5=Another Night
TTITLE6=Shooting Star
TTITLE7=Song For Ella
TTITLE8=Blue Trail Of Sorrow
TTITLE9=Heavenly Charm
TTITLE10=Across The Great Divide
EXTD=
EXTT0=
EXTT1=
EXTT2=
EXTT3=
EXTT4=
EXTT5=
EXTT6=
EXTT7=
EXTT8=
EXTT9=
EXTT10=
PLAYORDER=
